<svg width="22" height="22" viewBox="0 0 22 22" fill="none" xmlns="http://www.w3.org/2000/svg">
<mask id="mask0" mask-type="alpha" maskUnits="userSpaceOnUse" x="1" y="1" width="20" height="20">
<path fill-rule="evenodd" clip-rule="evenodd" d="M11 3C6.589 3 3 6.589 3 11C3 15.411 6.589 19 11 19C15.411 19 19 15.411 19 11C19 6.589 15.411 3 11 3M11 21C5.486 21 1 16.514 1 11C1 5.486 5.486 1 11 1C16.514 1 21 5.486 21 11C21 16.514 16.514 21 11 21M11 17C8.62 17 6.463 15.587 5.506 13.401L7.338 12.599C7.977 14.058 9.414 15 11 15C12.586 15 14.023 14.058 14.662 12.599L16.494 13.401C15.537 15.587 13.38 17 11 17M9.0698 8.5771C9.0698 9.4021 8.4008 10.0711 7.5768 10.0711C6.7528 10.0711 6.0838 9.4021 6.0838 8.5771C6.0838 7.7531 6.7528 7.0841 7.5768 7.0841C8.4008 7.0841 9.0698 7.7531 9.0698 8.5771M16.0698 8.5771C16.0698 9.4021 15.4008 10.0711 14.5768 10.0711C13.7528 10.0711 13.0838 9.4021 13.0838 8.5771C13.0838 7.7531 13.7528 7.0841 14.5768 7.0841C15.4008 7.0841 16.0698 7.7531 16.0698 8.5771" fill="white"/>
</mask>
<g mask="url(#mask0)">
<rect width="22" height="22" fill="#858585"/>
</g>
</svg>
